<?xml version="1.0" standalone="no"?>
<!DOCTYPE svg PUBLIC "-//W3C//DTD SVG 20010904//EN" "http://www.w3.org/TR/2001/REC-SVG-20010904/DTD/svg10.dtd">
<!-- Created using Krita: https://krita.org -->
<svg xmlns="http://www.w3.org/2000/svg" 
    xmlns:xlink="http://www.w3.org/1999/xlink"
    xmlns:krita="http://krita.org/namespaces/svg/krita"
    xmlns:sodipodi="http://sodipodi.sourceforge.net/DTD/sodipodi-0.dtd"
    width="480pt"
    height="480pt"
    viewBox="0 0 480 480">
<defs/>
<g id="group0" transform="matrix(0.999999970151383 0 0 0.999999970151383 25.0920768621112 25.199998630695)" fill="none">
  <circle id="shape010" transform="matrix(0.999999957645337 0 0 0.999999957645337 0 0)" r="10.8" cx="10.8" cy="10.8" fill="#ffffff" fill-rule="evenodd" stroke="#000000" stroke-width="2.4" stroke-linecap="square" stroke-linejoin="bevel"/>
  <path id="shape011" transform="matrix(0.99999994541908 0 0 0.99999994541908 6.81138046390831 5.13281350999761)" sodipodi:type="arc" sodipodi:rx="5.64" sodipodi:ry="5.76" sodipodi:cx="4.03608776988564" sodipodi:cy="5.76016167488571" sodipodi:start="3.91487993992648" sodipodi:end="0.928777210037" sodipodi:open="true" d="M7.4134 10.3733C9.11111 9.07692 9.9537 6.91784 9.59455 4.78425C9.23539 2.65066 7.73515 0.902922 5.711 0.260015C3.68685 -0.382893 1.48065 0.187619 0 1.73685" fill="none" stroke="#000000" stroke-width="0.96" stroke-linecap="square" stroke-linejoin="bevel"/>
  <path id="shape19" transform="matrix(0.999999970151383 0 0 0.999999970151383 5.75431891347683 5.26215960352931)" fill="none" stroke="#000000" stroke-width="0.96" stroke-linecap="square" stroke-linejoin="miter" stroke-miterlimit="2" d="M0 10.6915L10.6915 0" sodipodi:nodetypes="cc"/>
  <path id="shape22" transform="matrix(0.999999970151383 0 0 0.999999970151383 6.79793336891748 7.07999979822199)" fill="none" stroke="#000000" stroke-width="0.48" stroke-linecap="square" stroke-linejoin="miter" stroke-miterlimit="2" d="M0 0L7.47 8.28" sodipodi:nodetypes="cc"/>
 </g>
</svg>
