<?xml version="1.0" standalone="no"?>
<!DOCTYPE svg PUBLIC "-//W3C//DTD SVG 20010904//EN" "http://www.w3.org/TR/2001/REC-SVG-20010904/DTD/svg10.dtd">
<!-- Created using Krita: https://krita.org -->
<svg xmlns="http://www.w3.org/2000/svg" 
    xmlns:xlink="http://www.w3.org/1999/xlink"
    xmlns:krita="http://krita.org/namespaces/svg/krita"
    xmlns:sodipodi="http://sodipodi.sourceforge.net/DTD/sodipodi-0.dtd"
    width="480pt"
    height="480pt"
    viewBox="0 0 480 480">
<defs/>
<g id="group0" transform="matrix(0.999999965962633 0 0 0.999999965962633 145.092063348752 25.199998029798)" fill="none">
  <circle id="shape051" transform="matrix(1.00000001294784 0 0 1.00000001294784 -2.8421709430404e-14 -3.5527136788005e-15)" r="10.8" cx="10.8" cy="10.8" fill="#ffffff" fill-rule="evenodd" stroke="#000000" stroke-width="2.4" stroke-linecap="square" stroke-linejoin="bevel"/>
  <path id="shape27" transform="matrix(0.999999970151383 0 0 0.999999970151383 5.75432263788844 7.70999783418561)" fill="none" stroke="#000000" stroke-width="0.96" stroke-linecap="square" stroke-linejoin="miter" stroke-miterlimit="2" d="M0 8.24362L8.24362 0" sodipodi:nodetypes="cc"/>
  <path id="shape28" transform="matrix(0.999999970151383 0 0 0.999999970151383 10.8484388390061 7.15247327094767)" fill="none" stroke="#000000" stroke-width="0.48" stroke-linecap="square" stroke-linejoin="miter" stroke-miterlimit="2" d="M0.48 0L0 0" sodipodi:nodetypes="cc"/>
  <path id="shape29" transform="matrix(0.999999970151383 0 0 0.999999970151383 14.320227477742 10.0515532275276)" fill="none" stroke="#000000" stroke-width="0.48" stroke-linecap="square" stroke-linejoin="miter" stroke-miterlimit="2" d="M0 0L0 0.552852" sodipodi:nodetypes="cc"/>
  <ellipse id="shape30" transform="matrix(0.999999970151383 0 0 0.999999970151383 12.9179379048494 6.99000027933395)" rx="0.960000000000008" ry="0.84" cx="0.960000000000008" cy="0.84" fill="#000000" fill-rule="evenodd" stroke="#000000" stroke-width="0.96" stroke-linecap="square" stroke-linejoin="bevel"/>
  <path id="shape31" transform="matrix(0.999999970151383 0 0 0.999999970151383 14.0281827908791 4.64697867059551)" fill="none" stroke="#000000" stroke-width="0.48" stroke-linecap="square" stroke-linejoin="miter" stroke-miterlimit="2" d="M0.0443159 0.663022L0 0" sodipodi:nodetypes="cc"/>
  <path id="shape32" transform="matrix(0.999999970151383 0 0 -0.999999970151383 16.4121864721149 7.90637896265001)" fill="none" stroke="#000000" stroke-width="0.48" stroke-linecap="square" stroke-linejoin="miter" stroke-miterlimit="2" d="M0 0.0212132L0.596451 0" sodipodi:nodetypes="cc"/>
  <path id="shape33" transform="matrix(0.999999970151383 0 0 0.999999970151383 11.8856390641671 5.113667184325)" fill="none" stroke="#000000" stroke-width="0.48" stroke-linecap="square" stroke-linejoin="miter" stroke-miterlimit="2" d="M0.572756 0.678822L0 0" sodipodi:nodetypes="cc"/>
  <path id="shape34" transform="matrix(0.999999970151383 0 0 0.999999970151383 15.5767362501499 5.58035763312742)" fill="none" stroke="#000000" stroke-width="0.48" stroke-linecap="square" stroke-linejoin="miter" stroke-miterlimit="2" d="M0 0.53033L0.59397 0" sodipodi:nodetypes="cc"/>
  <path id="shape35" transform="matrix(0.999999970151383 0 0 0.999999970151383 15.7252286656777 9.48358684129294)" fill="none" stroke="#000000" stroke-width="0.48" stroke-linecap="square" stroke-linejoin="miter" stroke-miterlimit="2" d="M0 0L0.700036 0.551543" sodipodi:nodetypes="cc"/>
 </g>
</svg>
