<?xml version="1.0" standalone="no"?>
<!DOCTYPE svg PUBLIC "-//W3C//DTD SVG 20010904//EN" "http://www.w3.org/TR/2001/REC-SVG-20010904/DTD/svg10.dtd">
<!-- Created using Krita: https://krita.org -->
<svg xmlns="http://www.w3.org/2000/svg" 
    xmlns:xlink="http://www.w3.org/1999/xlink"
    xmlns:krita="http://krita.org/namespaces/svg/krita"
    xmlns:sodipodi="http://sodipodi.sourceforge.net/DTD/sodipodi-0.dtd"
    width="480pt"
    height="480pt"
    viewBox="0 0 480 480">
<defs/>
<g id="group0" transform="matrix(0.999999947944074 0 0 0.999999947944074 49.2277457404093 25.1980615097882)" fill="none">
  <circle id="shape012" transform="matrix(0.999999927796721 0 0 0.999999927796721 0 0)" r="10.8" cx="10.8" cy="10.8" fill="#ffffff" fill-rule="evenodd" stroke="#000000" stroke-width="2.4" stroke-linecap="square" stroke-linejoin="bevel"/>
  <path id="shape011" transform="matrix(0.999999915570465 0 0 0.999999915570465 6.81138026059801 5.13281335679022)" sodipodi:type="arc" sodipodi:rx="5.64" sodipodi:ry="5.76" sodipodi:cx="4.03608776988564" sodipodi:cy="5.76016167488571" sodipodi:start="3.91487993992648" sodipodi:end="0.928777210037" sodipodi:open="true" d="M7.4134 10.3733C9.11111 9.07692 9.9537 6.91784 9.59455 4.78425C9.23539 2.65066 7.73515 0.902922 5.711 0.260015C3.68685 -0.382893 1.48065 0.187619 0 1.73685" fill="none" stroke="#000000" stroke-width="0.96" stroke-linecap="square" stroke-linejoin="bevel"/>
  <path id="shape013" transform="matrix(0.999999940302767 0 0 0.999999940302767 5.75431874171835 5.26215944646112)" fill="none" stroke="#000000" stroke-width="0.96" stroke-linecap="square" stroke-linejoin="miter" stroke-miterlimit="2" d="M0 10.6915L10.6915 0" sodipodi:nodetypes="cc"/>
  <path id="shape20" transform="matrix(0.999999970151383 0 0 0.999999970151383 5.37226273567187 7.26193913783594)" fill="none" stroke="#000000" stroke-width="0.48" stroke-linecap="square" stroke-linejoin="miter" stroke-miterlimit="2" d="M1.2 0L0 8.94" sodipodi:nodetypes="cc"/>
  <path id="shape21" transform="matrix(0.999999970151383 0 0 0.999999970151383 5.37226273567187 15.6019391535019)" fill="none" stroke="#000000" stroke-width="0.48" stroke-linecap="square" stroke-linejoin="miter" stroke-miterlimit="2" d="M0 0.6L8.64 0" sodipodi:nodetypes="cc"/>
 </g>
</svg>
